<?xml version="1.0" encoding="iso-8859-1"?>
<!-- Uploaded to: SVG Repo, www.svgrepo.com, Generator: SVG Repo Mixer Tools -->
<svg fill="#000000" version="1.1" id="Layer_1" xmlns="http://www.w3.org/2000/svg" xmlns:xlink="http://www.w3.org/1999/xlink" 
	 viewBox="0 0 511.997 511.997" xml:space="preserve">
<g>
	<g>
		<path d="M447.429,212.172c-64.701,0-125.603,31.558-162.915,84.416l-23.749,33.645c-1.091,1.546-2.873,2.469-4.764,2.469
			c-1.892,0-3.673-0.923-4.764-2.469l-23.749-33.645c-37.313-52.859-98.214-84.416-162.915-84.416H56.72v164.593h398.561V212.172
			H447.429z M439.577,361.063H72.423V228.044c56.655,2.429,109.374,31.047,142.234,77.6l23.749,33.645
			c4.029,5.709,10.607,9.116,17.594,9.116s13.563-3.408,17.594-9.116l23.749-33.645c32.861-46.553,85.581-75.172,142.234-77.6
			V361.063z"/>
	</g>
</g>
<g>
	<g>
		<polygon points="112.579,426.114 112.579,467.989 79.079,467.989 79.079,426.114 63.376,426.114 63.376,483.692 128.282,483.692 
			128.282,426.114 		"/>
	</g>
</g>
<g>
	<g>
		<polygon points="439.203,426.114 439.203,467.989 404.656,467.989 404.656,426.114 388.953,426.114 388.953,483.692 
			454.906,483.692 454.906,426.114 		"/>
	</g>
</g>
<g>
	<g>
		<rect x="57.099" y="191.343" transform="matrix(1 -0.0013 0.0013 1 -0.2587 0.3334)" width="398.471" height="15.703"/>
	</g>
</g>
<g>
	<g>
		<path d="M256,212.172c-23.877,0-43.302,19.426-43.302,43.302c0,23.877,19.425,43.302,43.302,43.302
			c23.877,0,43.302-19.425,43.302-43.302S279.877,212.172,256,212.172z M247.625,281.769c-3.346-1.068-6.416-2.756-9.075-4.932
			l9.075-9.246V281.769z M247.625,245.175l-18.02,18.358c-0.78-2.55-1.204-5.256-1.204-8.059c0-12.299,8.088-22.74,19.224-26.295
			V245.175z M263.328,282.077v-14.98l10.01,9.828C270.429,279.281,267.034,281.055,263.328,282.077z M282.33,263.747l-19.002-18.657
			v-16.219c11.672,3.219,20.271,13.922,20.271,26.603C283.599,258.355,283.153,261.134,282.33,263.747z"/>
	</g>
</g>
<g>
	<g>
		<path d="M128.381,261.802c-23.877,0-43.302,19.425-43.302,43.302s19.425,43.302,43.302,43.302
			c23.876,0,43.301-19.425,43.301-43.302S152.257,261.802,128.381,261.802z M128.381,332.703c-15.218,0-27.599-12.38-27.599-27.599
			s12.38-27.599,27.599-27.599c15.217,0,27.598,12.38,27.598,27.599C155.979,320.321,143.598,332.703,128.381,332.703z"/>
	</g>
</g>
<g>
	<g>
		<path d="M128.381,283.073c-12.148,0-22.031,9.884-22.031,22.031c0,12.148,9.883,22.031,22.031,22.031
			c12.148,0,22.031-9.883,22.031-22.031C150.412,292.956,140.529,283.073,128.381,283.073z M128.381,311.432
			c-3.489,0-6.328-2.839-6.328-6.328c0-3.489,2.839-6.328,6.328-6.328c3.489,0,6.328,2.839,6.328,6.328
			C134.709,308.593,131.87,311.432,128.381,311.432z"/>
	</g>
</g>
<g>
	<g>
		<path d="M383.619,261.802c-23.876,0-43.301,19.425-43.301,43.302s19.425,43.302,43.301,43.302
			c23.877,0,43.302-19.425,43.302-43.302S407.496,261.802,383.619,261.802z M383.619,332.703c-15.217,0-27.598-12.38-27.598-27.599
			s12.38-27.599,27.598-27.599c15.218,0,27.599,12.38,27.599,27.599C411.218,320.321,398.837,332.703,383.619,332.703z"/>
	</g>
</g>
<g>
	<g>
		<path d="M383.619,283.073c-12.148,0-22.031,9.884-22.031,22.031c0,12.148,9.884,22.031,22.031,22.031s22.031-9.883,22.031-22.031
			C405.65,292.956,395.767,283.073,383.619,283.073z M383.619,311.432c-3.489,0-6.328-2.839-6.328-6.328
			c0-3.489,2.839-6.328,6.328-6.328s6.328,2.839,6.328,6.328C389.947,308.593,387.108,311.432,383.619,311.432z"/>
	</g>
</g>
<g>
	<g>
		<path d="M461.188,361.208v15.703h6.28v27.219H306.391v-21.798H205.608v21.798H43.485v-27.219h7.328v-15.703H27.782v58.625h177.827
			v20.742h100.783v-20.742h176.78v-58.625H461.188z M290.688,424.872h-69.377v-26.837h69.377V424.872z"/>
	</g>
</g>
<g>
	<g>
		<path d="M482.879,128.947c-12.777,0-23.651,8.276-27.564,19.746h-15.799c-2.418-25.658-7.595-48.463-15.48-77.376l-1.738-6.373
			h4.343V49.24H85.361v15.703h4.344l-1.739,6.374c-7.885,28.913-13.063,51.718-15.48,77.375h-15.8
			c-3.912-11.47-14.786-19.746-27.564-19.746C13.064,128.947,0,142.011,0,158.069s13.064,29.122,29.121,29.122
			c13.884,0,25.523-9.769,28.42-22.794H71.37c-0.312,6.428-0.472,13.111-0.472,20.178h15.703c0-41.309,5.324-68.101,16.512-109.126
			l2.865-10.505h300.039l2.865,10.505c11.188,41.024,16.512,67.817,16.512,109.126h15.703c0-7.067-0.16-13.75-0.472-20.178h13.829
			c2.898,13.024,14.537,22.794,28.42,22.794c16.057,0,29.121-13.064,29.121-29.122C512,142.011,498.936,128.947,482.879,128.947z
			 M29.121,171.488c-7.398,0-13.418-6.02-13.418-13.419c0-7.398,6.02-13.418,13.418-13.418s13.418,6.02,13.418,13.418
			C42.54,165.468,36.52,171.488,29.121,171.488z M482.879,171.488c-7.398,0-13.418-6.02-13.418-13.419
			c0-7.398,6.02-13.418,13.418-13.418c7.398,0,13.418,6.02,13.418,13.418C496.297,165.468,490.277,171.488,482.879,171.488z"/>
	</g>
</g>
<g>
	<g>
		<rect x="85.362" y="28.305" width="341.28" height="15.703"/>
	</g>
</g>
<g>
	<g>
		<polygon points="114.672,71.225 114.672,86.928 247.625,86.928 247.625,184.287 263.328,184.287 263.328,86.928 397.328,86.928 
			397.328,71.225 		"/>
	</g>
</g>
<g>
	<g>
		<polygon points="219.359,142.412 219.359,163.349 163.875,163.349 163.875,179.052 235.063,179.052 235.063,142.412 		"/>
	</g>
</g>
<g>
	<g>
		<rect x="135.612" y="163.351" width="13.609" height="15.703"/>
	</g>
</g>
<g>
	<g>
		<path d="M362.35,140.985c-23.877,0-43.302,19.224-43.302,43.302h15.703c0-14.656,12.38-27.599,27.599-27.599
			c15.217,0,27.598,12.943,27.598,27.599h15.703C405.65,160.209,386.226,140.985,362.35,140.985z"/>
	</g>
</g>
<g>
	<g>
		<rect x="235.065" y="404.132" width="41.875" height="15.703"/>
	</g>
</g>
</svg>